# xmcd CD database file
#
# Track frame offsets:
#	187
#	17267
#	33405
#	54365
#	73047
#	82517
#	97665
#	109060
#	120217
#	135312
#	154067
#
# Disc length: 2249 seconds
#
# Revision: 0
# Processed by: cddbd v1.5.2PL0 Copyright (c) Steve Scherf et al.
# Submitted via: CDex 1.70beta2
#
DISCID=6b08c70b
DTITLE=Amy Shreve - Peace In The Puzzle
DYEAR=1990
DGENRE=New Age
TTITLE0=Invocation
TTITLE1=Northern Lights
TTITLE2=Crystal Night
TTITLE3=Apogee
TTITLE4=Hymn VII
TTITLE5=Diamonds From Dust
TTITLE6=Silent Partner
TTITLE7=Peace In The Puzzle
TTITLE8=Carol For Russia's Children
TTITLE9=Jester's Lament
TTITLE10=Twilight Pavan
EXTD=YEAR: 1990
EXTT0=
EXTT1=
EXTT2=
EXTT3=
EXTT4=
EXTT5=
EXTT6=
EXTT7=
EXTT8=
EXTT9=
EXTT10=
PLAYORDER=
